{
    "asset" : {
        "generator" : "Khronos glTF Blender I/O v1.4.40",
        "version" : "2.0"
    },
    "scene" : 0,
    "scenes" : [
        {
            "name" : "Scene",
            "nodes" : [
                0
            ]
        }
    ],
    "nodes" : [
        {
            "mesh" : 0,
            "name" : "Plane",
            "translation" : [
               -45.5,
                0,
                -1.42

            ]
            
        }
    ],
    "meshes" : [
        {
            "name" : "Plane.001",
            "primitives" : [
                {
                    "attributes" : {
                        "POSITION" : 0,
                        "NORMAL" : 1,
                        "TEXCOORD_0" : 2
                    },
                    "indices" : 3
                }
            ]
        }
    ],
    "accessors" : [
        {
            "bufferView" : 0,
            "componentType" : 5126,
            "count" : 1318,
            "max" : [
                45.53889083862305,
                7,
                3.2213709354400635
            ],
            "min" : [
                -38.45924377441406,
                -1.762155443429947e-05,
                -25.046226501464844
            ],
            "type" : "VEC3"
        },
        {
            "bufferView" : 1,
            "componentType" : 5126,
            "count" : 1318,
            "type" : "VEC3"
        },
        {
            "bufferView" : 2,
            "componentType" : 5126,
            "count" : 1318,
            "type" : "VEC2"
        },
        {
            "bufferView" : 3,
            "componentType" : 5123,
            "count" : 2424,
            "type" : "SCALAR"
        }
    ],
    "bufferViews" : [
        {
            "buffer" : 0,
            "byteLength" : 15816,
            "byteOffset" : 0
        },
        {
            "buffer" : 0,
            "byteLength" : 15816,
            "byteOffset" : 15816
        },
        {
            "buffer" : 0,
            "byteLength" : 10544,
            "byteOffset" : 31632
        },
        {
            "buffer" : 0,
            "byteLength" : 4848,
            "byteOffset" : 42176
        }
    ],
    "buffers" : [
        {
            "byteLength" : 47024,
            "uri" : "data:application/octet-stream;base64,"
        }
    ]
}
